<svg viewBox="0 0 44 32" xmlns="http://www.w3.org/2000/svg">
  <path d="M14,6 C6,8 2,14 2,20 C2,25 6,28 11,28 C15,28 18,25 18,21
           C18,17 15,14 11,14 C11,10 13,7 18,5"
        fill="none" stroke="#1a1a1a" stroke-width="1.8"
        stroke-linecap="round" stroke-linejoin="round"/>
  <path d="M36,6 C28,8 24,14 24,20 C24,25 28,28 33,28 C37,28 40,25 40,21
           C40,17 37,14 33,14 C33,10 35,7 40,5"
        fill="none" stroke="#1a1a1a" stroke-width="1.8"
        stroke-linecap="round" stroke-linejoin="round"/>
</svg>
